<svg id="Einfach" xmlns="http://www.w3.org/2000/svg" width="333" height="333" viewBox="0 0 333 333">
  <metadata><?xpacket begin="﻿" id="W5M0MpCehiHzreSzNTczkc9d"?>
<x:xmpmeta xmlns:x="adobe:ns:meta/" x:xmptk="Adobe XMP Core 5.6-c138 79.159824, 2016/09/14-01:09:01        ">
   <rdf:RDF xmlns:rdf="http://www.w3.org/1999/02/22-rdf-syntax-ns#">
      <rdf:Description rdf:about=""/>
   </rdf:RDF>
</x:xmpmeta>
                                                                                                    
                                                                                                    
                                                                                                    
                                                                                                    
                                                                                                    
                                                                                                    
                                                                                                    
                                                                                                    
                                                                                                    
                                                                                                    
                                                                                                    
                                                                                                    
                                                                                                    
                                                                                                    
                                                                                                    
                                                                                                    
                                                                                                    
                                                                                                    
                                                                                                    
                                                                                                    
                           
<?xpacket end="w"?></metadata>
<defs>
    <style>
      .cls-1 {
        fill: #fff;
        fill-rule: evenodd;
      }
    </style>
  </defs>
  <path id="Grundform_Kopie_3" data-name="Grundform Kopie 3" class="cls-1" d="M28,83A55,55,0,0,1,83,28H250a55,55,0,0,1,55,55V250a55,55,0,0,1-55,55H83a55,55,0,0,1-55-55V83Zm97,194h83a69,69,0,0,0,69-69V125a69,69,0,0,0-69-69H125a69,69,0,0,0-69,69v83A69,69,0,0,0,125,277ZM88.111,105.281l15.274,15.278,12.711-3.352,3.35-12.719L104.191,89.23,107.422,86l30.9,8.451,8.465,30.846-3.254,3.25,65.357,65.324,2.186-2.183,28.208,7.708,7.722,28.159-20.486,20.45L198.312,240.3l-7.722-28.159,2.214-2.211-65.357-65.323-3.095,3.09-30.9-8.451L84.987,108.4ZM223.163,232.992l9.1-9.092-3.437-12.528-12.534-3.436-9.1,9.092,3.437,12.528Z"/>
</svg>
