<svg id="Sicherheit" xmlns="http://www.w3.org/2000/svg" width="333" height="333" viewBox="0 0 333 333">
  <metadata><?xpacket begin="﻿" id="W5M0MpCehiHzreSzNTczkc9d"?>
<x:xmpmeta xmlns:x="adobe:ns:meta/" x:xmptk="Adobe XMP Core 5.6-c138 79.159824, 2016/09/14-01:09:01        ">
   <rdf:RDF xmlns:rdf="http://www.w3.org/1999/02/22-rdf-syntax-ns#">
      <rdf:Description rdf:about=""/>
   </rdf:RDF>
</x:xmpmeta>
                                                                                                    
                                                                                                    
                                                                                                    
                                                                                                    
                                                                                                    
                                                                                                    
                                                                                                    
                                                                                                    
                                                                                                    
                                                                                                    
                                                                                                    
                                                                                                    
                                                                                                    
                                                                                                    
                                                                                                    
                                                                                                    
                                                                                                    
                                                                                                    
                                                                                                    
                                                                                                    
                           
<?xpacket end="w"?></metadata>
<defs>
    <style>
      .cls-1 {
        fill: #fff;
        fill-rule: evenodd;
      }
    </style>
  </defs>
  <g id="Inv">
    <path id="Grundform_Kopie_7" data-name="Grundform Kopie 7" class="cls-1" d="M81,125H252a25,25,0,0,1,25,25V266a25,25,0,0,1-25,25H81a25,25,0,0,1-25-25V150A25,25,0,0,1,81,125Zm123-14V95a25,25,0,0,0-25-25H154a25,25,0,0,0-25,25v16H101V92a50,50,0,0,1,50-50h31a50,50,0,0,1,50,50v19H204Zm26.015,71.75L171.44,241.272l-19.76,19.743-19.76-19.743-28.935-28.908,19.761-19.743L151.68,221.53l58.574-58.522Z"/>
  </g>
</svg>
