<svg id="Sicherheit_-_schnell" data-name="Sicherheit - schnell" xmlns="http://www.w3.org/2000/svg" width="333" height="333" viewBox="0 0 333 333">
  <defs>
    <style>
      .cls-1 {
        fill: #fff;
        fill-rule: evenodd;
      }
    </style>
  </defs>
  <path id="Grundform_Kopie_2" data-name="Grundform Kopie 2" class="cls-1" d="M232,92a50,50,0,0,0-50-50H151a50,50,0,0,0-50,50v19h28V95a25,25,0,0,1,25-25h25a25,25,0,0,1,25,25v16h28V92Zm45,58a25,25,0,0,0-25-25H81a25,25,0,0,0-25,25V266a25,25,0,0,0,25,25H252a25,25,0,0,0,25-25V150ZM209.523,264.992L195.655,251.12,236.764,210l-41.109-41.12,13.868-13.872,41.109,41.12L264.5,210l-13.868,13.872Zm-59.331,0L136.324,251.12,177.433,210l-41.109-41.12,13.868-13.872L205.169,210Zm-58.827,0L77.5,251.12,118.606,210,77.5,168.88l13.868-13.872L146.342,210Z"/>
</svg>
