<svg id="Repräsentativ" xmlns="http://www.w3.org/2000/svg" width="333" height="333" viewBox="0 0 333 333">
  <defs>
    <style>
      .cls-1 {
        fill: #fff;
        fill-rule: evenodd;
      }
    </style>
  </defs>
  <path id="Abgerundetes_Rechteck_1" data-name="Abgerundetes Rechteck 1" class="cls-1" d="M263.587,203.329L205.11,77.939,238.619,52,305,194.336ZM202.7,216.55l0.812,3.655a22.962,22.962,0,0,1-17.444,27.39l-29.592,6.566a22.965,22.965,0,0,1-27.394-17.442l-0.886-3.992-26.58,5.771L74.049,179.4,197.663,83.7l56.721,121.623Zm-47.224,20.9L179,232.227c6.185-1.372,10.747-6.547,12.609-13.271l-53.359,11.586C142.795,235.987,149.2,238.839,155.471,237.449ZM71.081,273l-43.09-92.4,37.529,2.237,27.971,59.976Z"/>
</svg>
