<svg xmlns="http://www.w3.org/2000/svg" width="333" height="333" viewBox="0 0 333 333">
  <metadata><?xpacket begin="﻿" id="W5M0MpCehiHzreSzNTczkc9d"?>
<x:xmpmeta xmlns:x="adobe:ns:meta/" x:xmptk="Adobe XMP Core 5.6-c138 79.159824, 2016/09/14-01:09:01        ">
   <rdf:RDF xmlns:rdf="http://www.w3.org/1999/02/22-rdf-syntax-ns#">
      <rdf:Description rdf:about=""/>
   </rdf:RDF>
</x:xmpmeta>
                                                                                                    
                                                                                                    
                                                                                                    
                                                                                                    
                                                                                                    
                                                                                                    
                                                                                                    
                                                                                                    
                                                                                                    
                                                                                                    
                                                                                                    
                                                                                                    
                                                                                                    
                                                                                                    
                                                                                                    
                                                                                                    
                                                                                                    
                                                                                                    
                                                                                                    
                                                                                                    
                           
<?xpacket end="w"?></metadata>
<defs>
    <style>
      .cls-1 {
        fill: #788286;
        fill-rule: evenodd;
      }
    </style>
  </defs>
  <path id="Abgerundetes_Rechteck_1" data-name="Abgerundetes Rechteck 1" class="cls-1" d="M69,0H264a69,69,0,0,1,69,69V264a69,69,0,0,1-69,69H69A69,69,0,0,1,0,264V69A69,69,0,0,1,69,0ZM291,101.872L160.49,231.133,125.287,266l-35.2-34.866L42,183.51l35.2-34.866,48.083,47.622L255.8,67.006ZM83,28H250a55,55,0,0,1,55,55V250a55,55,0,0,1-55,55H83a55,55,0,0,1-55-55V83A55,55,0,0,1,83,28Z"/>
</svg>
