<svg id="Encryption-Fast" xmlns="http://www.w3.org/2000/svg" width="333" height="333" viewBox="0 0 333 333">
  <defs>
    <style>
      .cls-1 {
        fill: #788286;
        fill-rule: evenodd;
      }
    </style>
  </defs>
  <path id="Rechteck_1" data-name="Rechteck 1" class="cls-1" d="M69,0H264a69,69,0,0,1,69,69V264a69,69,0,0,1-69,69H69A69,69,0,0,1,0,264V69A69,69,0,0,1,69,0ZM81,125H252a25,25,0,0,1,25,25V266a25,25,0,0,1-25,25H81a25,25,0,0,1-25-25V150A25,25,0,0,1,81,125Zm183.5,85-13.868,13.872h0l-41.109,41.12L195.655,251.12,236.764,210l-41.109-41.12,13.868-13.872,41.109,41.12h0ZM150.192,264.992L136.324,251.12,177.433,210l-41.109-41.12,13.868-13.872L205.169,210Zm-58.827,0L77.5,251.12,118.606,210,77.5,168.88l13.868-13.872L146.342,210ZM204,111V95a25,25,0,0,0-25-25H154a25,25,0,0,0-25,25v16H101V92a50,50,0,0,1,50-50h31a50,50,0,0,1,50,50v19H204Z"/>
</svg>
