<?xml version="1.0" encoding="UTF-8" standalone="no"?>
<svg width="504" xmlns="http://www.w3.org/2000/svg" height="153">
<style type="text/css">.st0{display:none;fill:#010202;}
  .st1{fill:#FFFFFF;}
  .st2{fill:#55AC32;}
  .st3{display:none;}
  .st4{display:inline;fill:#55AC32;}
  .st5{display:inline;fill:#FFFFFF;}
  .st6{fill:#56AD32;}</style>
<g>
<title>background</title>
<rect id="canvas_background" height="155" width="506" y="-1" x="-1" fill="none"/>
</g>
<g>
<title>Layer 1</title>
<rect id="bg" width="300" y="-25" x="-52" height="100" class="st0"/>
<path id="w" d="m59.8 99.9l10.7-45.6h11.4l-17.2 63.9h-9.2l-13.7-45.7-13.4 45.7h-9.2l-17.1-63.9h11.3l10.9 44.4 13.1-44.4h9.1l13.3 45.6z" class="st1"/>
<path id="h" d="m104 60.9c4.4-5.2 10-7.7 16.8-7.7 12.4 0 18.7 7.5 18.9 22.6v42.5h-11.4v-42c0-5-0.9-8.6-2.8-10.7-1.8-2.1-4.6-3.2-8.3-3.2-2.9 0-5.4 0.9-7.7 2.6s-4.1 4-5.5 6.8v46.5h-11.5v-90.8h11.5v33.4z" class="st1"/>
<path id="i" d="m169 37.4c0 1.8-0.5 3.3-1.6 4.4-1.1 1.2-2.7 1.8-4.9 1.8s-3.8-0.6-4.9-1.8-1.6-2.7-1.6-4.4 0.5-3.3 1.6-4.5c1.1-1.2 2.7-1.8 4.9-1.8s3.8 0.6 4.9 1.9c1.1 1.2 1.6 2.7 1.6 4.4zm-0.9 80.9h-11.5v-63.9h11.5v63.9z" class="st1"/>
<path id="s" d="m219 102c0-2.2-0.9-4.2-2.8-5.8s-5.5-3.5-10.8-5.7c-6.2-2.3-10.6-4.3-13.1-6s-4.4-3.5-5.7-5.6-1.9-4.6-1.9-7.5c0-5.2 2.1-9.5 6.3-13 4.2-3.4 9.5-5.2 16-5.2 6.8 0 12.3 1.8 16.5 5.4s6.2 8.3 6.2 13.9h-11.4c0-2.9-1.1-5.3-3.2-7.4-2.1-2-4.8-3-8.1-3-3.4 0-6 0.8-8 2.4-1.9 1.6-2.9 3.7-2.9 6.4 0 2.1 0.7 3.8 2.1 5.1s4.8 3 10.2 5.1c8.5 3 14.3 6 17.4 8.9s4.6 6.6 4.6 11c0 5.6-2.1 10-6.3 13.3s-9.8 5-16.9 5c-7.3 0-13.2-1.9-17.8-5.7-4.5-3.8-6.8-8.7-6.8-14.5h11.7c0.1 3.5 1.3 6.3 3.6 8.3s5.4 3 9.5 3c3.8 0 6.7-0.8 8.7-2.3 1.9-1.3 2.9-3.4 2.9-6.1z" class="st1"/>
<path id="P" d="m240 145l10.2 5.9v-5.9-35.2l20.8 12 31-17.9v-35.7l-31-17.9-31 17.9v1m51.1 28.4l-20.4 11.8-20.4-11.8v-23.6l20.4-11.8 20.4 11.8v23.6z" class="st1"/>
<polygon id="schloss" points="278 76 271 71.7 264 76 264 84.4 268 86.5 268 98.3 271 100 275 98.3 275 86.5 278 84.4" class="st2"/>
<path id="e_1_" d="m340 120c-8.7 0-15.5-2.4-20.1-7.1-4.7-4.7-7.1-11.7-7.1-20.9v-7.7c0-9.5 2.3-17 6.9-22.4s10.9-8.1 19.1-8.1 14.4 2.4 18.4 7.2c4.1 4.8 6.1 12.2 6.2 22.3v6.9h-39.2v1.5c0 6.9 1.4 11.8 4.3 15 2.8 3.1 6.9 4.7 12.2 4.7 3.4 0 6.4-0.6 8.9-1.7 2.6-1.2 5-3 7.2-5.5l6 6.6c-5 6-12.6 9.2-22.8 9.2zm-1.3-57.3c-4.8 0-8.3 1.5-10.6 4.5s-3.6 7.6-3.9 13.9h27.7v-1.4c-0.3-6.1-1.5-10.4-3.6-13-2.2-2.7-5.4-4-9.6-4z" class="st1"/>
<path id="e" d="m400 120c-8.7 0-15.5-2.4-20.1-7.1-4.7-4.7-7.1-11.7-7.1-20.9v-7.7c0-9.5 2.3-17 6.9-22.4s10.9-8.1 19.1-8.1 14.4 2.4 18.4 7.2c4.1 4.8 6.1 12.2 6.2 22.3v6.9h-39.2v1.5c0 6.9 1.4 11.8 4.3 15s6.9 4.7 12.2 4.7c3.4 0 6.4-0.6 8.9-1.7 2.6-1.2 5-3 7.2-5.5l6 6.6c-5 6-12.6 9.2-22.8 9.2zm-1.3-57.3c-4.8 0-8.3 1.5-10.6 4.5s-3.6 7.6-3.9 13.9h27.7v-1.4c-0.3-6.1-1.5-10.4-3.6-13-2.1-2.7-5.3-4-9.6-4z" class="st1"/>
<path id="r" d="m465 64.2c-1.6-0.3-3.3-0.4-5.2-0.4-5.9 0-10 2.9-12.3 8.8v45.7h-11.5v-63.9h11.2l0.2 6.5c3.1-5.1 7.4-7.7 13.1-7.7 1.8 0 3.3 0.3 4.5 0.8v10.2z" class="st1"/>
<g id="icon" class="st3">
<polygon points="466 224 466 206 482 197 498 206 498 224 482 234" class="st4"/>
<path class="st5" d="m482 201l12.2 7.1v14.1l-12.2 7.1-12.2-7.1v-14.1l12.2-7.1m0-8.1l-3.5 2-12.2 7.1-3.5 2v4 14.1 4l3.5 2 12.2 7.1 3.5 2 3.5-2 12.2-7.1 3.5-2v-4-14.1-4l-3.5-2-12.2-7.1-3.5-2z"/>
</g>
<g id="icon_4_">
<path class="st1" d="m484 1.6l-18.9 10.9v21.8l18.9 10.9 18.9-10.9v-21.8l-18.9-10.9zm9.9 27.5l-9.9 5.7-9.9-5.7v-11.4l9.9-5.7 9.9 5.7v11.4z"/>
</g>
<g id="icon_green">
<polygon points="495 29.7 495 17.1 484 10.8 473 17.1 473 29.7 484 35.9" class="st6"/>
</g>
</g>
</svg>
