<svg xmlns="http://www.w3.org/2000/svg" viewBox="0 0 501 149.52"><defs><style>.\35 996d7b5-0fcb-4002-a856-374005770cc1{fill:#fff;}.\37 6f96d0d-33fd-4a31-b3cf-4beedbe5e391{fill:#55ac32;}.\39 a202c0b-3b45-4c75-9073-4555fcfcdc58{fill:#56ad32;}</style></defs><title>logo_v3</title><g id="12873e81-1782-433f-b56c-1925d9525380" data-name="logo white only"><path id="baa92ea7-8190-4c41-b28e-de424f06f651" data-name="w" class="5996d7b5-0fcb-4002-a856-374005770cc1" d="M57.73,98.32,68.38,52.76H79.75L62.54,116.7H53.38L39.68,71,26.3,116.7H17.08L0,52.76H11.3L22.21,97.2,35.26,52.76h9.09Z"/><path id="c73d99d1-676c-4ef2-ada2-e7d2a451efc6" data-name="h" class="5996d7b5-0fcb-4002-a856-374005770cc1" d="M101.93,59.32a21,21,0,0,1,16.75-7.74q18.64,0,18.9,22.63V116.7H126.15v-42q0-7.5-2.76-10.67t-8.28-3.16a12.36,12.36,0,0,0-7.7,2.6,19,19,0,0,0-5.49,6.8V116.7H90.43V25.93h11.49Z"/><path id="2b552180-c8e0-48fd-84c3-cae3db7b8830" data-name="i" class="5996d7b5-0fcb-4002-a856-374005770cc1" d="M166.64,35.8a6.53,6.53,0,1,1-13.05,0,6.53,6.53,0,0,1,1.62-4.49,7.39,7.39,0,0,1,9.77,0A6.49,6.49,0,0,1,166.64,35.8Zm-.91,80.9H154.24V52.76h11.49Z"/><path id="06c12500-adb7-48a7-88ca-5b2695a96834" data-name="s" class="5996d7b5-0fcb-4002-a856-374005770cc1" d="M216.62,100.33a7.43,7.43,0,0,0-2.79-5.79Q211,92.12,203,88.87q-9.29-3.49-13.09-6a17.67,17.67,0,0,1-5.68-5.64,14.44,14.44,0,0,1-1.88-7.53,16.13,16.13,0,0,1,6.27-13q6.27-5.17,16-5.17,10.26,0,16.5,5.44A17.67,17.67,0,0,1,227.4,71H216a9.81,9.81,0,0,0-3.18-7.36,11.27,11.27,0,0,0-8.12-3q-5.07,0-8,2.39a7.86,7.86,0,0,0-2.89,6.39,6.64,6.64,0,0,0,2.11,5.13q2.11,1.94,10.16,5.12,12.79,4.56,17.4,8.91a14.52,14.52,0,0,1,4.61,11,16.18,16.18,0,0,1-6.3,13.35q-6.3,5-16.88,5-11,0-17.79-5.73a18.17,18.17,0,0,1-6.82-14.54h11.56a11.18,11.18,0,0,0,3.57,8.33q3.38,3,9.48,3,5.71,0,8.7-2.33A7.57,7.57,0,0,0,216.62,100.33Z"/><path id="a0ab6ebd-2847-463e-9d86-5ebff5fa37e4" data-name="P" class="5996d7b5-0fcb-4002-a856-374005770cc1" d="M238,143.65l10.2,5.88v-41l20.76,12,31-17.87V66.85L269,49,238,66.85v1m51.09,28.3L268.68,108,248.23,96.17V72.56l20.45-11.81,20.45,11.81Z"/><polygon id="6202f197-aee4-459b-b644-de8562a42fa2" data-name="schloss" class="76f96d0d-33fd-4a31-b3cf-4beedbe5e391" points="276.26 74.35 268.98 70.15 261.71 74.35 261.71 82.75 265.48 84.93 265.48 96.71 268.98 98.75 272.48 96.71 272.48 84.93 276.26 82.75 276.26 74.35"/><path id="d3f9e984-4b82-4b19-bc0d-4ac064f1bea3" data-name="e" class="5996d7b5-0fcb-4002-a856-374005770cc1" d="M337.47,117.88q-13.12,0-20.13-7.12t-7.14-20.89V82.13q0-14.3,6.85-22.43t19.13-8.13q12.34,0,18.44,7.15T360.85,81v6.85H321.62v1.48q0,10.28,4.25,15T338.12,109a21.51,21.51,0,0,0,8.93-1.74,21.84,21.84,0,0,0,7.24-5.53l6,6.62Q352.79,117.88,337.47,117.88Zm-1.3-57.32q-7.14,0-10.58,4.46t-3.9,13.86h27.67V77.46q-.46-9.1-3.6-13T336.17,60.56Z"/><path id="c28f60f1-82af-4f26-9ff9-35df41221189" data-name="e" class="5996d7b5-0fcb-4002-a856-374005770cc1" d="M398.42,117.88q-13.12,0-20.13-7.12t-7.14-20.89V82.13q0-14.3,6.85-22.43t19.13-8.13q12.34,0,18.44,7.15T421.8,81v6.85H382.57v1.48q0,10.28,4.25,15T399.07,109a21.5,21.5,0,0,0,8.93-1.74,21.82,21.82,0,0,0,7.24-5.53l6,6.62Q413.74,117.88,398.42,117.88Zm-1.3-57.32q-7.15,0-10.59,4.46t-3.9,13.86H410.3V77.46q-.45-9.1-3.6-13T397.12,60.56Z"/><path id="2b749512-8226-4229-9d76-c4bd54908b17" data-name="r" class="5996d7b5-0fcb-4002-a856-374005770cc1" d="M463.26,62.57a30.73,30.73,0,0,0-5.2-.41q-8.83,0-12.34,8.81V116.7H434.23V52.76H445.4l.19,6.5q4.61-7.68,13.05-7.68a11,11,0,0,1,4.54.83Z"/><g id="d0eef553-6f88-4142-bd34-58984d583222" data-name="icon"><path class="5996d7b5-0fcb-4002-a856-374005770cc1" d="M482.13,0,463.27,10.89V32.68l18.87,10.89L501,32.68V10.89ZM492,27.49l-9.89,5.71-9.89-5.71V16.08l9.89-5.71L492,16.08Z"/></g><g id="cf2f1f9b-9170-43ef-9e58-901a373d6f07" data-name="icon grün"><polygon class="9a202c0b-3b45-4c75-9073-4555fcfcdc58" points="493.01 28.07 493.01 15.51 482.13 9.23 471.26 15.51 471.26 28.07 482.13 34.35 493.01 28.07"/></g><g id="3de5ead9-86db-498d-be24-d911c95d9d42" data-name="BUSINESS"><path id="b2576151-1317-4fb7-bfc6-a2cd595cf8ff" data-name="B" class="5996d7b5-0fcb-4002-a856-374005770cc1" d="M351.9,149.06V132h4.86a6.83,6.83,0,0,1,2,.26,3.73,3.73,0,0,1,1.48.82,3.57,3.57,0,0,1,.92,1.41,5.92,5.92,0,0,1,.32,2.05,3.77,3.77,0,0,1-.6,2.11,4,4,0,0,1-1.62,1.42,3.16,3.16,0,0,1,1.1.57,3.54,3.54,0,0,1,.8.92,4.3,4.3,0,0,1,.49,1.19,5.68,5.68,0,0,1,.16,1.38,6.08,6.08,0,0,1-.34,2.12,4.22,4.22,0,0,1-1,1.55,4,4,0,0,1-1.52.94,5.88,5.88,0,0,1-2,.32Zm2.14-9.79h2.75a2.6,2.6,0,0,0,1-.19,2.2,2.2,0,0,0,.79-.54,2.52,2.52,0,0,0,.52-.86,3.33,3.33,0,0,0,.19-1.15,2.85,2.85,0,0,0-.62-2,2.54,2.54,0,0,0-1.9-.64H354Zm0,1.8v6.14H357a2.77,2.77,0,0,0,1.13-.22,2.32,2.32,0,0,0,.83-.61,2.64,2.64,0,0,0,.52-1,4.29,4.29,0,0,0,.18-1.27,5.17,5.17,0,0,0-.15-1.28,2.61,2.61,0,0,0-.46-1,2,2,0,0,0-.8-.62,2.85,2.85,0,0,0-1.17-.22Z"/><path id="60af8795-c5f0-43dc-93d4-c3afcc2d0f04" data-name="U" class="5996d7b5-0fcb-4002-a856-374005770cc1" d="M375.16,132v12a6.14,6.14,0,0,1-.43,2.44,4.49,4.49,0,0,1-1.16,1.63,4.44,4.44,0,0,1-1.68.91,7,7,0,0,1-2,.28,7.25,7.25,0,0,1-2.06-.28,4.23,4.23,0,0,1-1.66-.91,4.34,4.34,0,0,1-1.11-1.63,6.54,6.54,0,0,1-.4-2.44V132h2.13v12a5.27,5.27,0,0,0,.22,1.66,2.64,2.64,0,0,0,.63,1.06,2.25,2.25,0,0,0,1,.56,4.58,4.58,0,0,0,1.27.16,4.64,4.64,0,0,0,1.28-.16,2.25,2.25,0,0,0,1-.56,2.64,2.64,0,0,0,.63-1.06A5.27,5.27,0,0,0,373,144V132Z"/><path id="76975571-5680-4f2d-be21-d3a805d3c1df" data-name="S" class="5996d7b5-0fcb-4002-a856-374005770cc1" d="M385.92,144.74a3.74,3.74,0,0,0-.13-1.05,2,2,0,0,0-.5-.84,3.91,3.91,0,0,0-1-.71,12,12,0,0,0-1.61-.69,12.71,12.71,0,0,1-1.91-.83,6.25,6.25,0,0,1-1.46-1.07,4.31,4.31,0,0,1-.93-1.38,4.5,4.5,0,0,1-.33-1.77,4.85,4.85,0,0,1,.35-1.85,4.33,4.33,0,0,1,1-1.48,4.49,4.49,0,0,1,1.55-1,5.56,5.56,0,0,1,2-.35,5.26,5.26,0,0,1,2.2.43,4.85,4.85,0,0,1,1.61,1.15,4.77,4.77,0,0,1,1,1.65,5.81,5.81,0,0,1,.33,1.93h-2.16a4.92,4.92,0,0,0-.17-1.32,2.86,2.86,0,0,0-.53-1.05,2.44,2.44,0,0,0-.92-.69,3.71,3.71,0,0,0-2.56,0,2.23,2.23,0,0,0-1.34,1.45,3.66,3.66,0,0,0-.16,1.1,2.38,2.38,0,0,0,.77,1.8,6.86,6.86,0,0,0,2.39,1.3,12.27,12.27,0,0,1,2.13.91,5.63,5.63,0,0,1,1.46,1.13,4,4,0,0,1,.83,1.42,5.58,5.58,0,0,1,.26,1.78,4.86,4.86,0,0,1-.35,1.89,4,4,0,0,1-1,1.44,4.47,4.47,0,0,1-1.58.92,6.32,6.32,0,0,1-2.09.32,6.21,6.21,0,0,1-2-.33,5.26,5.26,0,0,1-1.75-1,4.93,4.93,0,0,1-1.24-1.62,5.07,5.07,0,0,1-.47-2.25h2.16a4,4,0,0,0,.26,1.51,2.77,2.77,0,0,0,1.76,1.64,4.13,4.13,0,0,0,1.28.19,2.87,2.87,0,0,0,2.13-.73A2.7,2.7,0,0,0,385.92,144.74Z"/><path id="5c63a5aa-024a-4357-9517-8b8404ece898" data-name="I" class="5996d7b5-0fcb-4002-a856-374005770cc1" d="M393.14,149.06H391V132h2.14Z"/><path id="13428d9c-d623-4f42-a3d6-c89a25038fcc" data-name="N" class="5996d7b5-0fcb-4002-a856-374005770cc1" d="M408,149.06h-2.16l-6.83-13.15v13.15H396.9V132h2.16l6.86,13.21V132H408Z"/><path id="b8f29e9e-5062-4707-beb0-7368f49e61d1" data-name="E" class="5996d7b5-0fcb-4002-a856-374005770cc1" d="M419.94,141.17h-6v6h7v1.84h-9.18V132h9.06v1.85H413.9v5.48h6Z"/><path id="bd121dd0-a251-4ea5-84ae-fbe940462615" data-name="S" class="5996d7b5-0fcb-4002-a856-374005770cc1" d="M431.13,144.74a3.74,3.74,0,0,0-.13-1.05,2,2,0,0,0-.5-.84,3.91,3.91,0,0,0-1-.71,12,12,0,0,0-1.61-.69,12.71,12.71,0,0,1-1.91-.83,6.25,6.25,0,0,1-1.46-1.07,4.31,4.31,0,0,1-.93-1.38,4.5,4.5,0,0,1-.33-1.77,4.85,4.85,0,0,1,.35-1.85,4.33,4.33,0,0,1,1-1.48,4.49,4.49,0,0,1,1.55-1,5.56,5.56,0,0,1,2-.35,5.26,5.26,0,0,1,2.2.43,4.85,4.85,0,0,1,1.61,1.15,4.77,4.77,0,0,1,1,1.65,5.81,5.81,0,0,1,.33,1.93h-2.16a4.92,4.92,0,0,0-.17-1.32,2.86,2.86,0,0,0-.53-1.05,2.44,2.44,0,0,0-.92-.69,3.71,3.71,0,0,0-2.56,0,2.23,2.23,0,0,0-1.34,1.45,3.66,3.66,0,0,0-.16,1.1,2.38,2.38,0,0,0,.77,1.8,6.86,6.86,0,0,0,2.39,1.3,12.27,12.27,0,0,1,2.13.91,5.63,5.63,0,0,1,1.46,1.13,4,4,0,0,1,.83,1.42,5.58,5.58,0,0,1,.26,1.78,4.86,4.86,0,0,1-.35,1.89,4,4,0,0,1-1,1.44,4.47,4.47,0,0,1-1.58.92,6.32,6.32,0,0,1-2.09.32,6.21,6.21,0,0,1-2-.33,5.26,5.26,0,0,1-1.75-1,4.93,4.93,0,0,1-1.24-1.62,5.07,5.07,0,0,1-.47-2.25H425a4,4,0,0,0,.26,1.51,2.77,2.77,0,0,0,1.76,1.64,4.13,4.13,0,0,0,1.28.19,2.87,2.87,0,0,0,2.13-.73A2.7,2.7,0,0,0,431.13,144.74Z"/><path id="6cdbb331-10a5-4933-adb6-157abe794844" data-name="S" class="5996d7b5-0fcb-4002-a856-374005770cc1" d="M443.56,144.74a3.74,3.74,0,0,0-.13-1.05,2,2,0,0,0-.5-.84,3.91,3.91,0,0,0-1-.71,12,12,0,0,0-1.61-.69,12.71,12.71,0,0,1-1.91-.83,6.25,6.25,0,0,1-1.46-1.07,4.31,4.31,0,0,1-.93-1.38,4.5,4.5,0,0,1-.33-1.77,4.85,4.85,0,0,1,.35-1.85,4.33,4.33,0,0,1,1-1.48,4.49,4.49,0,0,1,1.55-1,5.56,5.56,0,0,1,2-.35,5.26,5.26,0,0,1,2.2.43,4.85,4.85,0,0,1,1.61,1.15,4.77,4.77,0,0,1,1,1.65,5.81,5.81,0,0,1,.33,1.93h-2.16a4.92,4.92,0,0,0-.17-1.32,2.86,2.86,0,0,0-.53-1.05,2.44,2.44,0,0,0-.92-.69,3.71,3.71,0,0,0-2.56,0,2.23,2.23,0,0,0-1.34,1.45,3.66,3.66,0,0,0-.16,1.1,2.38,2.38,0,0,0,.77,1.8,6.86,6.86,0,0,0,2.39,1.3,12.27,12.27,0,0,1,2.13.91,5.63,5.63,0,0,1,1.46,1.13,4,4,0,0,1,.83,1.42,5.58,5.58,0,0,1,.26,1.78,4.86,4.86,0,0,1-.35,1.89,4,4,0,0,1-1,1.44,4.47,4.47,0,0,1-1.58.92,6.32,6.32,0,0,1-2.09.32,6.21,6.21,0,0,1-2-.33,5.26,5.26,0,0,1-1.75-1,4.93,4.93,0,0,1-1.24-1.62,5.07,5.07,0,0,1-.47-2.25h2.16a4,4,0,0,0,.26,1.51,2.77,2.77,0,0,0,1.76,1.64,4.13,4.13,0,0,0,1.28.19,2.87,2.87,0,0,0,2.13-.73A2.7,2.7,0,0,0,443.56,144.74Z"/></g></g></svg>