<svg xmlns="http://www.w3.org/2000/svg" viewBox="0 0 501 149.52"><defs><style>.\36 74d907a-adab-4c5e-bc9c-3a5c37e8f3eb{fill:#fff;}.\39 1e7995b-0318-42a1-9e34-9a37d1d147d6{fill:#5eb130;}</style></defs><title>white</title><g id="a6f0679b-fa6b-46aa-9206-362d92073813" data-name="Ebene 2"><g id="4a46546e-16c3-4696-8ede-0a62b5fe037d" data-name="logo white only BS"><path id="c7c41c27-f6d3-47a9-94a6-7b834c3c1ebd" data-name="w" class="674d907a-adab-4c5e-bc9c-3a5c37e8f3eb" d="M57.73,98.32,68.38,52.76H79.75L62.54,116.7H53.38L39.68,71,26.3,116.7H17.08L0,52.76H11.3L22.21,97.2,35.26,52.76h9.09Z"/><path id="dc3eff1b-0f82-416a-9e29-bd4e4e6aacae" data-name="h" class="674d907a-adab-4c5e-bc9c-3a5c37e8f3eb" d="M101.93,59.32a21,21,0,0,1,16.75-7.74q18.64,0,18.9,22.63V116.7H126.15v-42q0-7.5-2.76-10.67t-8.28-3.16a12.36,12.36,0,0,0-7.7,2.6,19,19,0,0,0-5.49,6.8V116.7H90.43V25.93h11.49Z"/><path id="8e43f6a4-98d2-4c8c-b7af-10079210a690" data-name="i" class="674d907a-adab-4c5e-bc9c-3a5c37e8f3eb" d="M166.64,35.8a6.53,6.53,0,1,1-13.05,0,6.53,6.53,0,0,1,1.62-4.49,7.39,7.39,0,0,1,9.77,0A6.49,6.49,0,0,1,166.64,35.8Zm-.91,80.9H154.24V52.76h11.49Z"/><path id="628cca41-395a-4258-9150-75511f0bc574" data-name="s" class="674d907a-adab-4c5e-bc9c-3a5c37e8f3eb" d="M216.62,100.33a7.43,7.43,0,0,0-2.79-5.79Q211,92.12,203,88.87q-9.29-3.49-13.09-6a17.67,17.67,0,0,1-5.68-5.64,14.44,14.44,0,0,1-1.88-7.53,16.13,16.13,0,0,1,6.27-13q6.27-5.17,16-5.17,10.26,0,16.5,5.44A17.67,17.67,0,0,1,227.4,71H216a9.81,9.81,0,0,0-3.18-7.36,11.27,11.27,0,0,0-8.12-3q-5.07,0-8,2.39a7.86,7.86,0,0,0-2.89,6.39,6.64,6.64,0,0,0,2.11,5.13q2.11,1.94,10.16,5.12,12.79,4.56,17.4,8.91a14.52,14.52,0,0,1,4.61,11,16.18,16.18,0,0,1-6.3,13.35q-6.3,5-16.88,5-11,0-17.79-5.73a18.17,18.17,0,0,1-6.82-14.54h11.56a11.18,11.18,0,0,0,3.57,8.33q3.38,3,9.48,3,5.71,0,8.7-2.33A7.57,7.57,0,0,0,216.62,100.33Z"/><path id="fc6cc23c-e6a2-4658-a186-d6e599961e25" data-name="P" class="674d907a-adab-4c5e-bc9c-3a5c37e8f3eb" d="M238,143.65l10.2,5.88v-41l20.76,12,31-17.87V66.85L269,49,238,66.85Zm51.1-47.48L268.68,108,248.23,96.17V72.56l20.45-11.81,20.45,11.81Z"/><polygon id="70307dde-549e-433f-b454-c05f51af106b" data-name="schloss" class="91e7995b-0318-42a1-9e34-9a37d1d147d6" points="276.26 74.35 268.98 70.15 261.71 74.35 261.71 82.75 265.48 84.93 265.48 96.71 268.98 98.75 272.48 96.71 272.48 84.93 276.26 82.75 276.26 74.35"/><path id="42602dbc-169d-4bfc-adbc-037bf9b2cf66" data-name="e" class="674d907a-adab-4c5e-bc9c-3a5c37e8f3eb" d="M337.47,117.88q-13.12,0-20.13-7.12t-7.14-20.89V82.13q0-14.3,6.85-22.43t19.13-8.13q12.34,0,18.44,7.15T360.85,81v6.85H321.62v1.48q0,10.28,4.25,15T338.12,109a21.51,21.51,0,0,0,8.93-1.74,21.84,21.84,0,0,0,7.24-5.53l6,6.62Q352.79,117.88,337.47,117.88Zm-1.3-57.32q-7.14,0-10.58,4.46t-3.9,13.86h27.67V77.46q-.46-9.1-3.6-13T336.17,60.56Z"/><path id="9a063880-efbb-4d30-be5a-d55c1b93ff87" data-name="e" class="674d907a-adab-4c5e-bc9c-3a5c37e8f3eb" d="M398.42,117.88q-13.12,0-20.13-7.12t-7.14-20.89V82.13q0-14.3,6.85-22.43t19.13-8.13q12.34,0,18.44,7.15T421.8,81v6.85H382.57v1.48q0,10.28,4.25,15T399.07,109a21.5,21.5,0,0,0,8.93-1.74,21.82,21.82,0,0,0,7.24-5.53l6,6.62Q413.74,117.88,398.42,117.88Zm-1.3-57.32q-7.15,0-10.59,4.46t-3.9,13.86H410.3V77.46q-.45-9.1-3.6-13T397.12,60.56Z"/><path id="3305f659-feb8-4ebd-84b3-3b9dd58f14d6" data-name="r" class="674d907a-adab-4c5e-bc9c-3a5c37e8f3eb" d="M463.26,62.57a30.73,30.73,0,0,0-5.2-.41q-8.83,0-12.34,8.81V116.7H434.23V52.76H445.4l.19,6.5q4.61-7.68,13.05-7.68a11,11,0,0,1,4.54.83Z"/><g id="bbe1018f-9695-482d-a7d9-ae0c6b40cdce" data-name="icon"><path class="674d907a-adab-4c5e-bc9c-3a5c37e8f3eb" d="M482.13,0,463.27,10.89V32.68l18.87,10.89L501,32.68V10.89ZM492,27.49l-9.89,5.71-9.89-5.71V16.08l9.89-5.71L492,16.08Z"/></g><g id="34fa75e8-41c1-4289-abea-f16585e93e83" data-name="icon grün"><polygon class="91e7995b-0318-42a1-9e34-9a37d1d147d6" points="493.01 28.07 493.01 15.51 482.13 9.23 471.26 15.51 471.26 28.07 482.13 34.35 493.01 28.07"/></g></g></g></svg>