<svg id="72e54418-276e-4842-aed8-97c9c56ba30d" data-name="logo white only" xmlns="http://www.w3.org/2000/svg" viewBox="0 0 501.002 149.521">
    <defs>
        <style>
            .\31 47c1f08-7e9b-44ad-a32d-b0a6294e7739{fill:#fff;}.\35 16f49bc-5bb3-47aa-a3a5-f57a15de5933{fill:#55ac32;}.\32 df3d5db-49da-472f-9e19-bc1234582f5f{fill:#56ad32;}
        </style>
    </defs>
    <title>
        logo_v3
    </title>
    <path id="7c7d1500-fbc0-44b9-bf1e-0ee7de94c1c8" data-name="w" class="147c1f08-7e9b-44ad-a32d-b0a6294e7739" d="M57.733,98.323l10.65-45.564H79.748L62.539,116.7H53.382l-13.7-45.741L26.3,116.7H17.08L0,52.759H11.3L22.21,97.2,35.263,52.759h9.092Z"/>
    <path id="e5fe66d0-2b6d-4d4d-80c5-3eedb82cc98e" data-name="h" class="147c1f08-7e9b-44ad-a32d-b0a6294e7739" d="M101.927,59.319a20.984,20.984,0,0,1,16.755-7.742q18.638,0,18.9,22.634V116.7H126.15V74.684q0-7.5-2.76-10.667t-8.28-3.162a12.365,12.365,0,0,0-7.7,2.6,18.962,18.962,0,0,0-5.488,6.8V116.7H90.432V25.929h11.495v33.39Z"/>
    <path id="4777cd0e-2cf0-4876-b71c-b4e67a6c9134" data-name="i" class="147c1f08-7e9b-44ad-a32d-b0a6294e7739" d="M166.642,35.8a6.528,6.528,0,1,1-13.053,0,6.529,6.529,0,0,1,1.624-4.491,7.39,7.39,0,0,1,9.774.029A6.487,6.487,0,0,1,166.642,35.8Zm-0.909,80.9H154.238V52.759h11.495V116.7Z"/>
    <path id="74824751-b061-486b-a48d-bd536a6c5a45" data-name="s" class="147c1f08-7e9b-44ad-a32d-b0a6294e7739" d="M216.616,100.332a7.427,7.427,0,0,0-2.792-5.791q-2.793-2.423-10.78-5.674-9.288-3.486-13.085-5.969a17.666,17.666,0,0,1-5.683-5.644,14.445,14.445,0,0,1-1.883-7.535,16.135,16.135,0,0,1,6.267-12.972q6.266-5.17,16.008-5.171,10.26,0,16.5,5.437A17.668,17.668,0,0,1,227.4,70.961h-11.43a9.813,9.813,0,0,0-3.182-7.357,11.269,11.269,0,0,0-8.118-3.043q-5.065,0-7.955,2.386a7.862,7.862,0,0,0-2.89,6.392,6.639,6.639,0,0,0,2.111,5.127q2.109,1.945,10.163,5.125,12.793,4.559,17.4,8.908a14.521,14.521,0,0,1,4.611,11.038,16.179,16.179,0,0,1-6.3,13.348q-6.3,5-16.885,5-10.975,0-17.794-5.732a18.173,18.173,0,0,1-6.819-14.538h11.56a11.178,11.178,0,0,0,3.572,8.333q3.376,3.015,9.481,3.014,5.714,0,8.7-2.334A7.572,7.572,0,0,0,216.616,100.332Z"/>
    <path id="3839b03a-02be-45bb-9977-c48517cf7507" data-name="P" class="147c1f08-7e9b-44ad-a32d-b0a6294e7739" d="M238.026,143.645l10.2,5.875,0-5.875V108.471l20.756,11.984,30.95-17.869V66.848l-30.95-17.869-30.95,17.869v1.026m51.093,28.3-20.45,11.807-20.45-11.807V72.556l20.45-11.807,20.45,11.807V96.169Z"/>
    <polygon id="c3fc52b1-d7d8-4bb1-9f5b-fc140b2491a0" data-name="schloss" class="516f49bc-5bb3-47aa-a3a5-f57a15de5933" points="276.258 74.352 268.982 70.152 261.706 74.352 261.706 82.754 265.482 84.934 265.482 96.714 268.982 98.75 272.482 96.714 272.482 84.934 276.258 82.754 276.258 74.352"/>
    <path id="1ab850a0-29c3-4674-a2fc-1d38a454b562" data-name="e" class="147c1f08-7e9b-44ad-a32d-b0a6294e7739" d="M337.469,117.884q-13.118,0-20.132-7.121t-7.144-20.891V82.13q0-14.3,6.852-22.426t19.125-8.126q12.338,0,18.443,7.151t6.234,22.279v6.854H321.624V89.34q0,10.283,4.254,14.952t12.241,4.668a21.506,21.506,0,0,0,8.93-1.743,21.84,21.84,0,0,0,7.241-5.525l5.975,6.619Q352.795,117.883,337.469,117.884Zm-1.3-57.323q-7.144,0-10.585,4.461t-3.9,13.858h27.665V77.462q-0.456-9.1-3.6-13T336.17,60.56Z"/>
    <path id="e5b32171-7178-4788-abb7-ec12917d80b5" data-name="e" class="147c1f08-7e9b-44ad-a32d-b0a6294e7739" d="M398.418,117.884q-13.119,0-20.132-7.121t-7.144-20.891V82.13q0-14.3,6.851-22.426t19.126-8.126q12.337,0,18.443,7.151T421.8,81.008v6.854H382.573V89.34q0,10.283,4.253,14.952t12.242,4.668A21.5,21.5,0,0,0,408,107.217a21.82,21.82,0,0,0,7.241-5.525l5.975,6.619Q413.745,117.883,398.418,117.884Zm-1.3-57.323q-7.146,0-10.586,4.461t-3.9,13.858H410.3V77.462q-0.454-9.1-3.6-13T397.12,60.56Z"/>
    <path id="2624b777-2836-43d7-b674-d49f775697b5" data-name="r" class="147c1f08-7e9b-44ad-a32d-b0a6294e7739" d="M463.264,62.57a30.729,30.729,0,0,0-5.2-.414q-8.833,0-12.34,8.806V116.7H434.235V52.76H445.4l0.194,6.5q4.611-7.682,13.054-7.683a10.983,10.983,0,0,1,4.545.827Z"/>
    <g id="c932d532-2e0c-4fe6-baec-8d8b3432aaed" data-name="icon">
        <path class="147c1f08-7e9b-44ad-a32d-b0a6294e7739" d="M482.135,0L463.268,10.893V32.679l18.867,10.893L501,32.679V10.893Zm9.888,27.495L482.135,33.2l-9.888-5.709V16.077l9.888-5.709,9.888,5.709V27.495Z"/>
    </g>
    <g id="7e191e04-e12b-4334-88b0-c756bdb6dd45" data-name="icon grün">
        <polygon class="2df3d5db-49da-472f-9e19-bc1234582f5f" points="493.012 28.066 493.012 15.506 482.135 9.226 471.257 15.506 471.257 28.066 482.135 34.346 493.012 28.066"/>
    </g>
</svg>
