<svg id="d75e2a30-8d84-48d8-96b9-a99061215871" data-name="logo grey only" xmlns="http://www.w3.org/2000/svg" viewBox="0 0 501.002 149.521">
    <defs>
        <style>
            .\38 afa97f2-817c-45f8-978e-6faa05b8651c{fill:#788286;}.ffc87d77-3c5c-40fc-a91a-42017a71ade5{fill:#5ea231;}
        </style>
    </defs>
    <title>
        logo_v3_grey
    </title>
    <path id="5a662ec7-1cb1-424f-a674-58789d8c0f7f" data-name="w" class="8afa97f2-817c-45f8-978e-6faa05b8651c" d="M57.733,98.323l10.65-45.564H79.748L62.539,116.7H53.382l-13.7-45.741L26.3,116.7H17.08L0,52.759H11.3L22.21,97.2,35.263,52.759h9.092Z"/>
    <path id="5c304f3a-0951-457d-b7ff-051e90ba9bf5" data-name="h" class="8afa97f2-817c-45f8-978e-6faa05b8651c" d="M101.927,59.319a20.984,20.984,0,0,1,16.755-7.742q18.638,0,18.9,22.634V116.7H126.15V74.684q0-7.5-2.76-10.667t-8.28-3.162a12.365,12.365,0,0,0-7.7,2.6,18.962,18.962,0,0,0-5.488,6.8V116.7H90.432V25.929h11.495v33.39Z"/>
    <path id="e9467e52-9ebd-4920-be47-b43f9fea2933" data-name="i" class="8afa97f2-817c-45f8-978e-6faa05b8651c" d="M166.642,35.8a6.528,6.528,0,1,1-13.053,0,6.529,6.529,0,0,1,1.624-4.491,7.39,7.39,0,0,1,9.774.029A6.487,6.487,0,0,1,166.642,35.8Zm-0.909,80.9H154.238V52.759h11.495V116.7Z"/>
    <path id="8d2f7e67-d4fa-4a59-9580-0fe34b1f78b7" data-name="s" class="8afa97f2-817c-45f8-978e-6faa05b8651c" d="M216.616,100.332a7.427,7.427,0,0,0-2.792-5.791q-2.793-2.423-10.78-5.674-9.288-3.486-13.085-5.969a17.666,17.666,0,0,1-5.683-5.644,14.445,14.445,0,0,1-1.883-7.535,16.135,16.135,0,0,1,6.267-12.972q6.266-5.17,16.008-5.171,10.26,0,16.5,5.437A17.668,17.668,0,0,1,227.4,70.961h-11.43a9.813,9.813,0,0,0-3.182-7.357,11.269,11.269,0,0,0-8.118-3.043q-5.065,0-7.955,2.386a7.862,7.862,0,0,0-2.89,6.392,6.639,6.639,0,0,0,2.111,5.127q2.109,1.945,10.163,5.125,12.793,4.559,17.4,8.908a14.521,14.521,0,0,1,4.611,11.038,16.179,16.179,0,0,1-6.3,13.348q-6.3,5-16.885,5-10.975,0-17.794-5.732a18.173,18.173,0,0,1-6.819-14.538h11.56a11.178,11.178,0,0,0,3.572,8.333q3.376,3.015,9.481,3.014,5.714,0,8.7-2.334A7.572,7.572,0,0,0,216.616,100.332Z"/>
    <path id="696c10d9-0d1e-4ad2-8650-9d7efaba398e" data-name="P" class="8afa97f2-817c-45f8-978e-6faa05b8651c" d="M238.026,143.645l10.2,5.875,0-5.875V108.471l20.756,11.984,30.95-17.869V66.848l-30.95-17.869-30.95,17.869v1.026m51.093,28.3-20.45,11.807-20.45-11.807V72.556l20.45-11.807,20.45,11.807V96.169Z"/>
    <polygon id="a81d34c7-27d1-45b0-9100-49607766ce5f" data-name="schloss" class="ffc87d77-3c5c-40fc-a91a-42017a71ade5" points="276.258 74.352 268.982 70.152 261.706 74.352 261.706 82.754 265.482 84.934 265.482 96.714 268.982 98.75 272.482 96.714 272.482 84.934 276.258 82.754 276.258 74.352"/>
    <path id="92f112b7-53fa-4607-88b7-3e30b7d13964" data-name="e" class="8afa97f2-817c-45f8-978e-6faa05b8651c" d="M337.469,117.884q-13.118,0-20.132-7.121t-7.144-20.891V82.13q0-14.3,6.852-22.426t19.125-8.126q12.338,0,18.443,7.151t6.234,22.279v6.854H321.624V89.34q0,10.283,4.254,14.952t12.241,4.668a21.506,21.506,0,0,0,8.93-1.743,21.84,21.84,0,0,0,7.241-5.525l5.975,6.619Q352.795,117.883,337.469,117.884Zm-1.3-57.323q-7.144,0-10.585,4.461t-3.9,13.858h27.665V77.462q-0.456-9.1-3.6-13T336.17,60.56Z"/>
    <path id="36d34093-289c-470a-b5e9-95bd90f09cf3" data-name="e" class="8afa97f2-817c-45f8-978e-6faa05b8651c" d="M398.418,117.884q-13.119,0-20.132-7.121t-7.144-20.891V82.13q0-14.3,6.851-22.426t19.126-8.126q12.337,0,18.443,7.151T421.8,81.008v6.854H382.573V89.34q0,10.283,4.253,14.952t12.242,4.668A21.5,21.5,0,0,0,408,107.217a21.82,21.82,0,0,0,7.241-5.525l5.975,6.619Q413.745,117.883,398.418,117.884Zm-1.3-57.323q-7.146,0-10.586,4.461t-3.9,13.858H410.3V77.462q-0.454-9.1-3.6-13T397.12,60.56Z"/>
    <path id="ce25cfc9-39ca-451d-bac0-9738c21a459a" data-name="r" class="8afa97f2-817c-45f8-978e-6faa05b8651c" d="M463.264,62.57a30.729,30.729,0,0,0-5.2-.414q-8.833,0-12.34,8.806V116.7H434.235V52.76H445.4l0.194,6.5q4.611-7.682,13.054-7.683a10.983,10.983,0,0,1,4.545.827Z"/>
    <g id="a5425df0-0cda-4455-a855-2fe31c51b2e4" data-name="icon">
        <path class="8afa97f2-817c-45f8-978e-6faa05b8651c" d="M482.135,0L463.268,10.893V32.679l18.867,10.893L501,32.679V10.893Zm9.888,27.495L482.135,33.2l-9.888-5.709V16.077l9.888-5.709,9.888,5.709V27.495Z"/>
    </g>
    <g id="a0e574c8-cfe2-4eec-b3c7-a9db4301cf79" data-name="icon grün">
        <polygon class="ffc87d77-3c5c-40fc-a91a-42017a71ade5" points="493.012 28.066 493.012 15.506 482.135 9.226 471.257 15.506 471.257 28.066 482.135 34.346 493.012 28.066"/>
    </g>
</svg>
