<svg version="1" xmlns="http://www.w3.org/2000/svg" width="933.333" height="933.333" viewBox="0 0 700.000000 700.000000"><path d="M188.3 104.8L54 181.5v169l.1 169 44.5 25.4c43.3 24.6 44.5 25.4 43.9 28-.3 1.4-6.1 23.1-12.8 48.1-8 29.8-11.9 45.6-11.1 45.8.6.2 30.6-7.6 66.7-17.3l65.6-17.6L300 660c27.1 15.5 49.8 28 50.6 27.8.7-.2 67.5-38.1 148.3-84.3l147-84v-169l.1-169-134.4-76.8L377.2 28h-27.3l-27.4.1-134.2 76.7zm205.4 103l41.3 25.7V339.8l-22 13.6-22 13.7v74.2l-.1 74.2-20.4 12.8-20.5 12.8-20.5-12.8-20.4-12.8-.1-74.2v-74.2l-22-13.7-22-13.6V233.5l42.2-26.3c26.6-16.6 42.8-26.1 43.7-25.7.9.3 20.2 12.2 42.8 26.3z"/></svg>