<svg xmlns="http://www.w3.org/2000/svg" viewBox="0 0 501 149.52"><title>white_darker</title><g id="05a9ae8a-3748-4bf8-baf5-50acbda18bd2" data-name="Ebene 2"><g id="d61bf02f-13fe-432e-8b14-6f73e024e476" data-name="logo white darker only BS Kopie"><path id="9ef59045-3531-45d3-8099-90f566463419" data-name="w" d="M57.73,98.32,68.38,52.76H79.75L62.54,116.7H53.38L39.68,71,26.3,116.7H17.08L0,52.76H11.3L22.21,97.2,35.26,52.76h9.09Z" fill="#fff"/><path id="ed226b25-aa76-4702-b03f-bf4ae409552c" data-name="h" d="M101.93,59.32a21,21,0,0,1,16.75-7.74q18.64,0,18.9,22.63V116.7H126.15v-42q0-7.5-2.76-10.67t-8.28-3.16a12.36,12.36,0,0,0-7.7,2.6,19,19,0,0,0-5.49,6.8V116.7H90.43V25.93h11.49Z" fill="#fff"/><path id="04c9b7aa-686d-4996-ad27-4666638fc175" data-name="i" d="M166.64,35.8a6.53,6.53,0,1,1-13.05,0,6.53,6.53,0,0,1,1.62-4.49,7.39,7.39,0,0,1,9.77,0A6.49,6.49,0,0,1,166.64,35.8Zm-.91,80.9H154.24V52.76h11.49Z" fill="#fff"/><path id="c127e847-8b73-44a7-881f-172b11161838" data-name="s" d="M216.62,100.33a7.43,7.43,0,0,0-2.79-5.79Q211,92.12,203,88.87q-9.29-3.49-13.09-6a17.67,17.67,0,0,1-5.68-5.64,14.44,14.44,0,0,1-1.88-7.53,16.13,16.13,0,0,1,6.27-13q6.27-5.17,16-5.17,10.26,0,16.5,5.44A17.67,17.67,0,0,1,227.4,71H216a9.81,9.81,0,0,0-3.18-7.36,11.27,11.27,0,0,0-8.12-3q-5.07,0-8,2.39a7.86,7.86,0,0,0-2.89,6.39,6.64,6.64,0,0,0,2.11,5.13q2.11,1.94,10.16,5.12,12.79,4.56,17.4,8.91a14.52,14.52,0,0,1,4.61,11,16.18,16.18,0,0,1-6.3,13.35q-6.3,5-16.88,5-11,0-17.79-5.73a18.17,18.17,0,0,1-6.82-14.54h11.56a11.18,11.18,0,0,0,3.57,8.33q3.38,3,9.48,3,5.71,0,8.7-2.33A7.57,7.57,0,0,0,216.62,100.33Z" fill="#fff"/><path id="6593b897-cfcc-4f23-81d7-319d1c935cb3" data-name="P" d="M238,143.65l10.2,5.88v-41l20.76,12,31-17.87V66.85L269,49,238,66.85Zm51.1-47.48L268.68,108,248.23,96.17V72.56l20.45-11.81,20.45,11.81Z" fill="#fff"/><polygon id="6b5ecc04-2e3d-4705-9be2-37e0a740bc06" data-name="schloss" points="276.26 74.35 268.98 70.15 261.71 74.35 261.71 82.75 265.48 84.93 265.48 96.71 268.98 98.75 272.48 96.71 272.48 84.93 276.26 82.75 276.26 74.35" fill="#3a8100"/><path id="6c093d1d-858b-46cf-8ebf-183934371084" data-name="e" d="M337.47,117.88q-13.12,0-20.13-7.12t-7.14-20.89V82.13q0-14.3,6.85-22.43t19.13-8.13q12.34,0,18.44,7.15T360.85,81v6.85H321.62v1.48q0,10.28,4.25,15T338.12,109a21.51,21.51,0,0,0,8.93-1.74,21.84,21.84,0,0,0,7.24-5.53l6,6.62Q352.79,117.88,337.47,117.88Zm-1.3-57.32q-7.14,0-10.58,4.46t-3.9,13.86h27.67V77.46q-.46-9.1-3.6-13T336.17,60.56Z" fill="#fff"/><path id="0ff66671-d4d2-4365-8f10-f6cea26a49c6" data-name="e" d="M398.42,117.88q-13.12,0-20.13-7.12t-7.14-20.89V82.13q0-14.3,6.85-22.43t19.13-8.13q12.34,0,18.44,7.15T421.8,81v6.85H382.57v1.48q0,10.28,4.25,15T399.07,109a21.5,21.5,0,0,0,8.93-1.74,21.82,21.82,0,0,0,7.24-5.53l6,6.62Q413.74,117.88,398.42,117.88Zm-1.3-57.32q-7.15,0-10.59,4.46t-3.9,13.86H410.3V77.46q-.45-9.1-3.6-13T397.12,60.56Z" fill="#fff"/><path id="84d6f9bd-5769-414b-a62e-13cfb984473e" data-name="r" d="M463.26,62.57a30.73,30.73,0,0,0-5.2-.41q-8.83,0-12.34,8.81V116.7H434.23V52.76H445.4l.19,6.5q4.61-7.68,13.05-7.68a11,11,0,0,1,4.54.83Z" fill="#fff"/><g id="4d0979f3-cb9d-48d6-9533-d31c9c6eb1bf" data-name="icon"><path d="M482.13,0,463.27,10.89V32.68l18.87,10.89L501,32.68V10.89ZM492,27.49l-9.89,5.71-9.89-5.71V16.08l9.89-5.71L492,16.08Z" fill="#fff"/></g><g id="46620aad-e93b-4e9c-bb09-5e0f4f590a8d" data-name="icon grün"><polygon points="493.01 28.07 493.01 15.51 482.13 9.23 471.26 15.51 471.26 28.07 482.13 34.35 493.01 28.07" fill="#3a8100"/></g></g></g></svg>