<?xml version="1.0"?>
<svg version="1.1" xmlns="http://www.w3.org/2000/svg" xmlns:xlink="http://www.w3.org/1999/xlink" width="328" height="70">
    <filter id="drop-shadow">
		<feGaussianBlur in="SourceAlpha" stdDeviation="2.2"/>
		<feOffset dx="1" dy="1" result="offsetblur"/>
		<feFlood flood-color="rgba(20,20,20,0.5)"/>
		<feComposite in2="offsetblur" operator="in"/>
		<feMerge>
			<feMergeNode/>
			<feMergeNode in="SourceGraphic"/>
		</feMerge>
	</filter>
    <g id="Layer1" name="Layer 2" visibility="hidden" opacity="1">
        <g id="Shape1">
            <desc shapeID="1" type="0" basicInfo-basicType="1" basicInfo-roundedRectRadius="12" basicInfo-polygonSides="6" basicInfo-starPoints="5" bounding="rect(-88.2735,-30.71,176.547,61.4201)" text="" font-familyName="Helvetica" font-pixelSize="20" font-bold="0" font-underline="0" font-alignment="1" strokeStyle="0" markerStart="0" markerEnd="0" shadowEnabled="0" shadowOffsetX="0" shadowOffsetY="2" shadowBlur="4" shadowOpacity="160" blurEnabled="0" blurRadius="4" transform="matrix(1.85867,0,0,1.14202,163.929,34.9286)" pers-center="0,0" pers-size="0,0" pers-start="0,0" pers-end="0,0" locked="0" mesh="" flag=""/>
            <path id="shapePath1" d="M-0.142853,-0.142838 L328,-0.142838 L328,70 L-0.142853,70 L-0.142853,-0.142838 Z" style="stroke:none;fill-rule:evenodd;fill:#0062ab;fill-opacity:1;"/>
        </g>
    </g>
    <g id="Layer2" name="Layer 1" opacity="1">
        <g id="Shape2">
            <desc shapeID="2" type="0" basicInfo-basicType="0" basicInfo-roundedRectRadius="12" basicInfo-polygonSides="6" basicInfo-starPoints="5" bounding="rect(-88.2,-56.85,176.4,113.7)" text="" font-familyName="" font-pixelSize="20" font-bold="0" font-underline="0" font-alignment="1" strokeStyle="0" markerStart="0" markerEnd="0" shadowEnabled="0" shadowOffsetX="0" shadowOffsetY="2" shadowBlur="4" shadowOpacity="160" blurEnabled="0" blurRadius="4" transform="matrix(0.343494,0,0,0.343999,35.6762,35.9778)" pers-center="0,0" pers-size="0,0" pers-start="0,0" pers-end="0,0" locked="0" mesh="" flag=""/>
            <path id="shapePath2" d="M42.6491,55.5342 L35.7105,29.287 L35.5731,29.287 L28.9093,55.5342 L17.7801,55.5342 L5.37997,16.4214 L16.7153,16.4214 L23.8943,42.9782 L24.0317,42.9782 L30.5237,16.4214 L40.966,16.4214 L47.6298,42.9094 L47.7672,42.9094 L54.9462,16.4214 L65.9724,16.4214 L53.6753,55.5342 L42.6491,55.5342 Z" style="stroke:none;fill-rule:nonzero;fill:#ffffff;fill-opacity:1;"/>
        </g>
        <g id="Shape3">
            <desc shapeID="3" type="0" basicInfo-basicType="0" basicInfo-roundedRectRadius="12" basicInfo-polygonSides="6" basicInfo-starPoints="5" bounding="rect(-53.45,-78.6001,106.9,157.2)" text="" font-familyName="" font-pixelSize="20" font-bold="0" font-underline="0" font-alignment="1" strokeStyle="0" markerStart="0" markerEnd="0" shadowEnabled="0" shadowOffsetX="0" shadowOffsetY="2" shadowBlur="4" shadowOpacity="160" blurEnabled="0" blurRadius="4" transform="matrix(0.343494,0,0,0.343999,87.6246,28.5646)" pers-center="0,0" pers-size="0,0" pers-start="0,0" pers-end="0,0" locked="0" mesh="" flag=""/>
            <path id="shapePath3" d="M80.0162,1.52625 L80.0162,21.891 L80.2566,21.891 C81.6306,19.6206 83.3481,17.9694 85.4777,16.9374 C87.6074,15.9054 89.6684,15.3894 91.6606,15.3894 C94.546,15.3894 96.8818,15.7678 98.7366,16.559 C100.591,17.3502 102.034,18.4166 103.099,19.827 C104.164,21.203 104.885,22.8886 105.332,24.8838 C105.744,26.879 105.984,29.0806 105.984,31.4886 L105.984,55.5686 L95.2673,55.5686 L95.2673,33.4838 C95.2673,30.2502 94.7521,27.8422 93.756,26.2598 C92.7598,24.6774 90.9736,23.8862 88.3974,23.8862 C85.4777,23.8862 83.3481,24.7462 82.0428,26.5006 C80.7375,28.255 80.0849,31.1102 80.0849,35.1006 L80.0849,55.603 L69.2648,55.603 L69.2648,1.52625 L80.0162,1.52625 Z" style="stroke:none;fill-rule:nonzero;fill:#ffffff;fill-opacity:1;"/>
        </g>
        <g id="Shape4">
            <desc shapeID="4" type="0" basicInfo-basicType="0" basicInfo-roundedRectRadius="12" basicInfo-polygonSides="6" basicInfo-starPoints="5" bounding="rect(-15.6,-78.5001,31.2,157)" text="" font-familyName="" font-pixelSize="20" font-bold="0" font-underline="0" font-alignment="1" strokeStyle="0" markerStart="0" markerEnd="0" shadowEnabled="0" shadowOffsetX="0" shadowOffsetY="2" shadowBlur="4" shadowOpacity="160" blurEnabled="0" blurRadius="4" transform="matrix(0.343494,0,0,0.343999,117.501,28.5302)" pers-center="0,0" pers-size="0,0" pers-start="0,0" pers-end="0,0" locked="0" mesh="" flag=""/>
            <path id="shapePath4" d="M112.142,10.367 L112.142,1.52625 L122.859,1.52625 L122.859,10.367 L112.142,10.367 M122.859,16.4214 L122.859,55.5342 L112.142,55.5342 L112.142,16.4214 L122.859,16.4214 Z" style="stroke:none;fill-rule:nonzero;fill:#ffffff;fill-opacity:1;"/>
        </g>
        <g id="Shape5">
            <desc shapeID="5" type="0" basicInfo-basicType="0" basicInfo-roundedRectRadius="12" basicInfo-polygonSides="6" basicInfo-starPoints="5" bounding="rect(-52.7,-59.8,105.4,119.6)" text="" font-familyName="" font-pixelSize="20" font-bold="0" font-underline="0" font-alignment="1" strokeStyle="0" markerStart="0" markerEnd="0" shadowEnabled="0" shadowOffsetX="0" shadowOffsetY="2" shadowBlur="4" shadowOpacity="160" blurEnabled="0" blurRadius="4" transform="matrix(0.343494,0,0,0.343999,145.851,35.995)" pers-center="0,0" pers-size="0,0" pers-start="0,0" pers-end="0,0" locked="0" mesh="" flag=""/>
            <path id="shapePath5" d="M138.707,45.8334 C139.187,46.659 139.806,47.347 140.561,47.863 C141.317,48.379 142.176,48.7918 143.172,49.0326 C144.168,49.2734 145.164,49.411 146.229,49.411 C146.985,49.411 147.775,49.3078 148.599,49.1358 C149.424,48.9638 150.179,48.6886 150.866,48.3102 C151.553,47.9318 152.103,47.4158 152.584,46.7966 C153.03,46.1774 153.271,45.3862 153.271,44.423 C153.271,42.8062 152.206,41.6022 150.076,40.7766 C147.947,39.9854 144.958,39.1598 141.111,38.3686 C139.531,38.0246 138.02,37.6118 136.543,37.1302 C135.066,36.6486 133.726,36.0294 132.558,35.2382 C131.39,34.447 130.463,33.4838 129.776,32.2798 C129.054,31.1102 128.711,29.631 128.711,27.9454 C128.711,25.4342 129.192,23.3702 130.188,21.7534 C131.184,20.1366 132.455,18.8638 134.069,17.935 C135.684,17.0062 137.504,16.3526 139.497,15.9742 C141.523,15.5958 143.584,15.4238 145.679,15.4238 C147.809,15.4238 149.836,15.6302 151.828,16.043 C153.82,16.4558 155.606,17.1438 157.152,18.0726 C158.698,19.0358 160.003,20.3086 161.034,21.891 C162.064,23.4734 162.682,25.503 162.889,27.911 L152.687,27.911 C152.549,25.847 151.759,24.4366 150.351,23.7142 C148.943,22.9918 147.294,22.6134 145.37,22.6134 C144.752,22.6134 144.099,22.6478 143.412,22.7166 C142.691,22.7854 142.073,22.9574 141.489,23.1982 C140.905,23.439 140.424,23.8174 140.012,24.299 C139.6,24.7806 139.394,25.4342 139.394,26.2254 C139.394,27.1886 139.737,27.9798 140.458,28.5646 C141.18,29.1838 142.073,29.6654 143.206,30.0438 C144.34,30.4222 145.645,30.7662 147.088,31.0758 C148.565,31.3854 150.042,31.695 151.553,32.0734 C153.099,32.4174 154.645,32.8646 156.122,33.3462 C157.599,33.8278 158.938,34.5158 160.106,35.3414 C161.274,36.167 162.202,37.199 162.889,38.4374 C163.61,39.6758 163.953,41.1894 163.953,43.0126 C163.953,45.5926 163.438,47.7254 162.408,49.4798 C161.377,51.2342 160.038,52.6102 158.354,53.6766 C156.706,54.743 154.782,55.4654 152.652,55.9126 C150.523,56.3254 148.324,56.5662 146.126,56.5662 C143.859,56.5662 141.661,56.3254 139.462,55.8782 C137.298,55.431 135.375,54.6742 133.692,53.6078 C132.008,52.5414 130.634,51.131 129.535,49.411 C128.436,47.6566 127.852,45.4894 127.749,42.875 L137.951,42.875 C137.985,43.9758 138.226,44.9734 138.707,45.8334 Z" style="stroke:none;fill-rule:nonzero;fill:#ffffff;fill-opacity:1;"/>
        </g>
        <g id="Shape6">
            <desc shapeID="6" type="0" basicInfo-basicType="0" basicInfo-roundedRectRadius="12" basicInfo-polygonSides="6" basicInfo-starPoints="5" bounding="rect(-57.8,-78.3501,115.6,156.7)" text="" font-familyName="" font-pixelSize="20" font-bold="0" font-underline="0" font-alignment="1" strokeStyle="0" markerStart="0" markerEnd="0" shadowEnabled="0" shadowOffsetX="0" shadowOffsetY="2" shadowBlur="4" shadowOpacity="160" blurEnabled="0" blurRadius="4" transform="matrix(0.343494,0,0,0.343999,189.144,42.1042)" pers-center="0,0" pers-size="0,0" pers-start="0,0" pers-end="0,0" locked="0" mesh="" flag=""/>
            <path id="shapePath6" d="M179.423,16.2182 L179.423,21.2062 L179.56,21.2062 C180.866,19.0734 182.549,17.5598 184.541,16.5966 C186.568,15.6334 188.766,15.1518 191.205,15.1518 C194.262,15.1518 196.907,15.7366 199.139,16.9062 C201.372,18.0758 203.193,19.5894 204.67,21.5158 C206.147,23.4422 207.212,25.6782 207.933,28.2238 C208.654,30.7694 208.998,33.4182 208.998,36.2046 C208.998,38.819 208.654,41.3646 207.933,43.7726 C207.212,46.1806 206.147,48.3478 204.738,50.2054 C203.33,52.063 201.51,53.5766 199.38,54.6774 C197.25,55.7782 194.743,56.3286 191.857,56.3286 C189.453,56.3286 187.22,55.847 185.159,54.8494 C183.133,53.8518 181.449,52.407 180.144,50.515 L180.007,50.515 L180.007,69.0566 L169.29,69.0566 L169.29,16.2182 L179.423,16.2182 M193.369,47.247 C194.537,46.5246 195.498,45.6302 196.254,44.495 C196.975,43.3598 197.491,42.0182 197.8,40.5046 C198.109,38.991 198.246,37.443 198.246,35.895 C198.246,34.347 198.075,32.799 197.765,31.2854 C197.422,29.7718 196.907,28.4302 196.151,27.2262 C195.395,26.0566 194.434,25.0934 193.231,24.3366 C192.029,23.6142 190.586,23.2358 188.903,23.2358 C187.151,23.2358 185.674,23.6142 184.472,24.3366 C183.27,25.059 182.343,26.0222 181.587,27.1574 C180.866,28.327 180.35,29.6686 180.041,31.1822 C179.732,32.6958 179.595,34.2438 179.595,35.8606 C179.595,37.4086 179.766,38.9566 180.076,40.4702 C180.419,41.9838 180.934,43.3254 181.656,44.4606 C182.377,45.5958 183.339,46.5246 184.575,47.2126 C185.778,47.935 187.255,48.279 188.972,48.279 C190.689,48.3134 192.167,47.935 193.369,47.247 Z" style="stroke:none;fill-rule:nonzero;fill:#54ab0c;fill-opacity:1;"/>
        </g>
        <g id="Shape7">
            <desc shapeID="7" type="0" basicInfo-basicType="0" basicInfo-roundedRectRadius="12" basicInfo-polygonSides="6" basicInfo-starPoints="5" bounding="rect(-56.7474,-59.8502,113.495,119.7)" text="" font-familyName="" font-pixelSize="20" font-bold="0" font-underline="0" font-alignment="1" strokeStyle="0" markerStart="0" markerEnd="0" shadowEnabled="0" shadowOffsetX="0" shadowOffsetY="2" shadowBlur="4" shadowOpacity="160" blurEnabled="0" blurRadius="4" transform="matrix(0.343494,0,0,0.343999,231.183,36.0456)" pers-center="0,0" pers-size="0,0" pers-start="0,0" pers-end="0,0" locked="0" mesh="" flag=""/>
            <path id="shapePath7" d="M225.052,46.2449 C226.667,47.7929 228.968,48.5845 231.991,48.5845 C234.155,48.5845 236.01,48.0341 237.59,46.9673 C239.136,45.8669 240.097,44.7313 240.475,43.5277 L249.921,43.5277 C248.41,48.2061 246.108,51.5769 242.983,53.6069 C239.857,55.6365 236.078,56.6341 231.647,56.6341 C228.59,56.6341 225.808,56.1525 223.335,55.1549 C220.862,54.1569 218.766,52.7809 217.049,50.9581 C215.331,49.1349 214.026,46.9673 213.099,44.4565 C212.171,41.9453 211.69,39.1589 211.69,36.1317 C211.69,33.2075 212.171,30.4899 213.133,27.9444 C214.095,25.4332 215.434,23.2316 217.221,21.4084 C218.972,19.5508 221.102,18.106 223.541,17.0396 C225.98,15.9732 228.693,15.4572 231.647,15.4572 C234.979,15.4572 237.865,16.1108 240.338,17.3836 C242.811,18.6564 244.838,20.4108 246.418,22.578 C247.998,24.7452 249.166,27.2219 249.853,30.0083 C250.54,32.7947 250.814,35.6845 250.608,38.7117 L222.407,38.7117 C222.579,42.1861 223.438,44.697 225.052,46.2449 M237.178,25.674 C235.907,24.2636 233.949,23.5412 231.338,23.5412 C229.621,23.5412 228.212,23.8164 227.079,24.4012 C225.945,24.986 225.052,25.7084 224.365,26.5684 C223.678,27.4284 223.197,28.3227 222.923,29.2859 C222.648,30.2491 222.476,31.1091 222.442,31.8659 L239.891,31.8659 C239.376,29.1483 238.483,27.0844 237.178,25.674 Z" style="stroke:none;fill-rule:nonzero;fill:#54ab0c;fill-opacity:1;"/>
        </g>
        <g id="Shape8">
            <desc shapeID="8" type="0" basicInfo-basicType="0" basicInfo-roundedRectRadius="12" basicInfo-polygonSides="6" basicInfo-starPoints="5" bounding="rect(-56.7474,-59.8502,113.495,119.7)" text="" font-familyName="" font-pixelSize="20" font-bold="0" font-underline="0" font-alignment="1" strokeStyle="0" markerStart="0" markerEnd="0" shadowEnabled="0" shadowOffsetX="0" shadowOffsetY="2" shadowBlur="4" shadowOpacity="160" blurEnabled="0" blurRadius="4" transform="matrix(0.343494,0,0,0.343999,273.103,36.0456)" pers-center="0,0" pers-size="0,0" pers-start="0,0" pers-end="0,0" locked="0" mesh="" flag=""/>
            <path id="shapePath8" d="M266.973,46.2449 C268.587,47.7929 270.888,48.5845 273.911,48.5845 C276.075,48.5845 277.93,48.0341 279.51,46.9673 C281.056,45.8669 282.018,44.7313 282.395,43.5277 L291.842,43.5277 C290.33,48.2061 288.029,51.5769 284.903,53.6069 C281.777,55.6365 277.999,56.6341 273.568,56.6341 C270.511,56.6341 267.728,56.1525 265.255,55.1549 C262.782,54.1569 260.687,52.7809 258.969,50.9581 C257.252,49.1349 255.946,46.9673 255.019,44.4565 C254.092,41.9453 253.611,39.1589 253.611,36.1317 C253.611,33.2075 254.092,30.4899 255.053,27.9444 C256.015,25.4332 257.355,23.2316 259.141,21.4084 C260.893,19.5508 263.022,18.106 265.461,17.0396 C267.9,15.9732 270.614,15.4572 273.568,15.4572 C276.9,15.4572 279.785,16.1108 282.258,17.3836 C284.731,18.6564 286.758,20.4108 288.338,22.578 C289.918,24.7452 291.086,27.2219 291.773,30.0083 C292.46,32.7947 292.735,35.6845 292.529,38.7117 L264.328,38.7117 C264.465,42.1861 265.358,44.697 266.973,46.2449 M279.098,25.674 C277.827,24.2636 275.869,23.5412 273.259,23.5412 C271.541,23.5412 270.133,23.8164 268.999,24.4012 C267.866,24.986 266.973,25.7084 266.286,26.5684 C265.599,27.4284 265.118,28.3227 264.843,29.2859 C264.568,30.2491 264.396,31.1091 264.362,31.8659 L281.812,31.8659 C281.262,29.1483 280.369,27.0844 279.098,25.674 Z" style="stroke:none;fill-rule:nonzero;fill:#54ab0c;fill-opacity:1;"/>
        </g>
        <g id="Shape9">
            <desc shapeID="9" type="0" basicInfo-basicType="0" basicInfo-roundedRectRadius="12" basicInfo-polygonSides="6" basicInfo-starPoints="5" bounding="rect(-36.6,-58.4502,73.2,116.901)" text="" font-familyName="" font-pixelSize="20" font-bold="0" font-underline="0" font-alignment="1" strokeStyle="0" markerStart="0" markerEnd="0" shadowEnabled="0" shadowOffsetX="0" shadowOffsetY="2" shadowBlur="4" shadowOpacity="160" blurEnabled="0" blurRadius="4" transform="matrix(0.343494,0,0,0.343999,308.79,35.564)" pers-center="0,0" pers-size="0,0" pers-start="0,0" pers-end="0,0" locked="0" mesh="" flag=""/>
            <path id="shapePath9" d="M306.455,16.5236 L306.455,23.782 L306.592,23.782 C307.107,22.578 307.76,21.4428 308.619,20.4108 C309.477,19.3788 310.439,18.4844 311.573,17.762 C312.672,17.0396 313.874,16.4548 315.111,16.0764 C316.382,15.6636 317.687,15.4572 319.026,15.4572 C319.748,15.4572 320.503,15.5948 321.362,15.8356 L321.362,25.8116 C320.847,25.7084 320.263,25.6052 319.542,25.5364 C318.82,25.4676 318.168,25.4332 317.515,25.4332 C315.557,25.4332 313.874,25.7772 312.534,26.4308 C311.16,27.0844 310.061,27.9787 309.237,29.1139 C308.412,30.2491 307.829,31.5907 307.451,33.1043 C307.107,34.6179 306.935,36.2693 306.935,38.0237 L306.935,55.6709 L296.218,55.6709 L296.218,16.5236 L306.455,16.5236 Z" style="stroke:none;fill-rule:nonzero;fill:#54ab0c;fill-opacity:1;"/>
        </g>
    </g>
</svg>
