<svg xmlns="http://www.w3.org/2000/svg" viewBox="0 0 501 149.52"><title>white business</title><g id="136b0981-b392-41a7-825a-f3ac15453abb" data-name="Ebene 2"><g id="f8c69a5d-acef-4bf0-bbb2-164b8ebb8338" data-name="logo white only BS"><path id="8994ea1e-9d27-4672-bf1e-2efada308e11" data-name="w" d="M57.73,98.32,68.38,52.76H79.75L62.54,116.7H53.38L39.68,71,26.3,116.7H17.08L0,52.76H11.3L22.21,97.2,35.26,52.76h9.09Z" fill="#fff"/><path id="2b9b94ba-6a5d-48c0-92b8-ec4914a0c15f" data-name="h" d="M101.93,59.32a21,21,0,0,1,16.75-7.74q18.64,0,18.9,22.63V116.7H126.15v-42q0-7.5-2.76-10.67t-8.28-3.16a12.36,12.36,0,0,0-7.7,2.6,19,19,0,0,0-5.49,6.8V116.7H90.43V25.93h11.49Z" fill="#fff"/><path id="f438ee8e-f061-4db4-98b4-d3d13335722d" data-name="i" d="M166.64,35.8a6.53,6.53,0,1,1-13.05,0,6.53,6.53,0,0,1,1.62-4.49,7.39,7.39,0,0,1,9.77,0A6.49,6.49,0,0,1,166.64,35.8Zm-.91,80.9H154.24V52.76h11.49Z" fill="#fff"/><path id="12895a64-6ebd-4d99-89b1-75ba6bf94cad" data-name="s" d="M216.62,100.33a7.43,7.43,0,0,0-2.79-5.79Q211,92.12,203,88.87q-9.29-3.49-13.09-6a17.67,17.67,0,0,1-5.68-5.64,14.44,14.44,0,0,1-1.88-7.53,16.13,16.13,0,0,1,6.27-13q6.27-5.17,16-5.17,10.26,0,16.5,5.44A17.67,17.67,0,0,1,227.4,71H216a9.81,9.81,0,0,0-3.18-7.36,11.27,11.27,0,0,0-8.12-3q-5.07,0-8,2.39a7.86,7.86,0,0,0-2.89,6.39,6.64,6.64,0,0,0,2.11,5.13q2.11,1.94,10.16,5.12,12.79,4.56,17.4,8.91a14.52,14.52,0,0,1,4.61,11,16.18,16.18,0,0,1-6.3,13.35q-6.3,5-16.88,5-11,0-17.79-5.73a18.17,18.17,0,0,1-6.82-14.54h11.56a11.18,11.18,0,0,0,3.57,8.33q3.38,3,9.48,3,5.71,0,8.7-2.33A7.57,7.57,0,0,0,216.62,100.33Z" fill="#fff"/><path id="46387d49-9e18-4aaa-984d-bee8b13a775a" data-name="P" d="M238,143.65l10.2,5.88v-41l20.76,12,31-17.87V66.85L269,49,238,66.85Zm51.1-47.48L268.68,108,248.23,96.17V72.56l20.45-11.81,20.45,11.81Z" fill="#fff"/><polygon id="d9539d38-d2e0-4384-908e-0b89eb3af004" data-name="schloss" points="276.26 74.35 268.98 70.15 261.71 74.35 261.71 82.75 265.48 84.93 265.48 96.71 268.98 98.75 272.48 96.71 272.48 84.93 276.26 82.75 276.26 74.35" fill="#5eb130"/><path id="38d86891-0fba-4b69-a4ec-d890e05615f4" data-name="e" d="M337.47,117.88q-13.12,0-20.13-7.12t-7.14-20.89V82.13q0-14.3,6.85-22.43t19.13-8.13q12.34,0,18.44,7.15T360.85,81v6.85H321.62v1.48q0,10.28,4.25,15T338.12,109a21.51,21.51,0,0,0,8.93-1.74,21.84,21.84,0,0,0,7.24-5.53l6,6.62Q352.79,117.88,337.47,117.88Zm-1.3-57.32q-7.14,0-10.58,4.46t-3.9,13.86h27.67V77.46q-.46-9.1-3.6-13T336.17,60.56Z" fill="#fff"/><path id="85be3597-bbb2-48b1-92cd-f816710c4cd4" data-name="e" d="M398.42,117.88q-13.12,0-20.13-7.12t-7.14-20.89V82.13q0-14.3,6.85-22.43t19.13-8.13q12.34,0,18.44,7.15T421.8,81v6.85H382.57v1.48q0,10.28,4.25,15T399.07,109a21.5,21.5,0,0,0,8.93-1.74,21.82,21.82,0,0,0,7.24-5.53l6,6.62Q413.74,117.88,398.42,117.88Zm-1.3-57.32q-7.15,0-10.59,4.46t-3.9,13.86H410.3V77.46q-.45-9.1-3.6-13T397.12,60.56Z" fill="#fff"/><path id="bbcd7cb6-9300-4ef0-a15a-028a802ad9bf" data-name="r" d="M463.26,62.57a30.73,30.73,0,0,0-5.2-.41q-8.83,0-12.34,8.81V116.7H434.23V52.76H445.4l.19,6.5q4.61-7.68,13.05-7.68a11,11,0,0,1,4.54.83Z" fill="#fff"/><g id="e1ff5a55-49a0-4431-bfe2-e146c15e3a8a" data-name="icon"><path d="M482.13,0,463.27,10.89V32.68l18.87,10.89L501,32.68V10.89ZM492,27.49l-9.89,5.71-9.89-5.71V16.08l9.89-5.71L492,16.08Z" fill="#fff"/></g><g id="148bc59b-51f9-4b38-a351-5e5c6e4069f1" data-name="icon grün"><polygon points="493.01 28.07 493.01 15.51 482.13 9.23 471.26 15.51 471.26 28.07 482.13 34.35 493.01 28.07" fill="#5eb130"/></g><g id="b3438972-a0c7-47af-970e-40c82ca71f0a" data-name="BUSINESS"><path id="7a316a3f-2675-4a19-bf57-1c76f479a063" data-name="B" d="M335.52,149.25v-20h5.71a8,8,0,0,1,2.32.31,4.38,4.38,0,0,1,1.73,1,4.19,4.19,0,0,1,1.08,1.66,7,7,0,0,1,.37,2.41A4.42,4.42,0,0,1,346,137a4.72,4.72,0,0,1-1.9,1.67,3.71,3.71,0,0,1,1.29.67,4.15,4.15,0,0,1,.94,1.08,5.05,5.05,0,0,1,.57,1.4,6.67,6.67,0,0,1,.19,1.62,7.15,7.15,0,0,1-.4,2.48,5,5,0,0,1-1.14,1.82,4.71,4.71,0,0,1-1.78,1.11,6.91,6.91,0,0,1-2.33.37ZM338,137.75h3.23a3.05,3.05,0,0,0,1.17-.22,2.59,2.59,0,0,0,.92-.63,3,3,0,0,0,.61-1,3.91,3.91,0,0,0,.22-1.36,3.35,3.35,0,0,0-.73-2.4,3,3,0,0,0-2.23-.75H338Zm0,2.12v7.21h3.44a3.25,3.25,0,0,0,1.32-.25,2.73,2.73,0,0,0,1-.72,3.1,3.1,0,0,0,.61-1.13,5,5,0,0,0,.21-1.49,6.07,6.07,0,0,0-.17-1.5,3.07,3.07,0,0,0-.54-1.14,2.41,2.41,0,0,0-.94-.72,3.35,3.35,0,0,0-1.37-.25Z" fill="#fff"/><path id="ab2cdfee-a5eb-4ec6-87b9-de7f1dd3580d" data-name="U" d="M362.84,129.21v14.12a7.22,7.22,0,0,1-.51,2.87,5.28,5.28,0,0,1-1.36,1.92,5.21,5.21,0,0,1-2,1.07,8.19,8.19,0,0,1-2.34.33,8.52,8.52,0,0,1-2.42-.33,5,5,0,0,1-1.95-1.07,5.1,5.1,0,0,1-1.3-1.92,7.68,7.68,0,0,1-.47-2.87V129.21H353v14.12a6.19,6.19,0,0,0,.26,1.95,3.1,3.1,0,0,0,.74,1.25,2.64,2.64,0,0,0,1.14.66,5.38,5.38,0,0,0,1.49.19,5.45,5.45,0,0,0,1.5-.19,2.64,2.64,0,0,0,1.15-.66,3.1,3.1,0,0,0,.74-1.25,6.19,6.19,0,0,0,.26-1.95V129.21Z" fill="#fff"/><path id="8d098052-a199-481c-b16d-a47ac48b4004" data-name="S" d="M375.48,144.18a4.39,4.39,0,0,0-.16-1.24,2.4,2.4,0,0,0-.58-1,4.59,4.59,0,0,0-1.16-.84,14,14,0,0,0-1.89-.81,14.92,14.92,0,0,1-2.24-1,7.34,7.34,0,0,1-1.71-1.25,5.07,5.07,0,0,1-1.09-1.62,5.28,5.28,0,0,1-.39-2.08,5.7,5.7,0,0,1,.41-2.17,5.09,5.09,0,0,1,1.16-1.73,5.27,5.27,0,0,1,1.82-1.15,6.53,6.53,0,0,1,2.37-.41,6.18,6.18,0,0,1,2.58.51,5.69,5.69,0,0,1,1.89,1.35,5.6,5.6,0,0,1,1.15,1.94A6.83,6.83,0,0,1,378,135h-2.53a5.77,5.77,0,0,0-.2-1.56,3.36,3.36,0,0,0-.63-1.24,2.86,2.86,0,0,0-1.08-.81,4.35,4.35,0,0,0-3,0,2.62,2.62,0,0,0-1.58,1.71,4.3,4.3,0,0,0-.19,1.29,2.79,2.79,0,0,0,.91,2.12,8.06,8.06,0,0,0,2.81,1.53,14.41,14.41,0,0,1,2.51,1.07,6.61,6.61,0,0,1,1.71,1.33,4.72,4.72,0,0,1,1,1.67,6.56,6.56,0,0,1,.31,2.09,5.71,5.71,0,0,1-.41,2.22,4.75,4.75,0,0,1-1.18,1.69,5.24,5.24,0,0,1-1.85,1.08,7.42,7.42,0,0,1-2.45.38,7.29,7.29,0,0,1-2.33-.39,6.18,6.18,0,0,1-2.05-1.15,5.79,5.79,0,0,1-1.46-1.91,6,6,0,0,1-.56-2.64h2.53a4.64,4.64,0,0,0,.3,1.77,3.25,3.25,0,0,0,2.06,1.93,4.85,4.85,0,0,0,1.5.23,3.37,3.37,0,0,0,2.51-.85A3.17,3.17,0,0,0,375.48,144.18Z" fill="#fff"/><path id="7edb306d-0158-4667-a236-20dfdc719dd3" data-name="I" d="M384,149.25h-2.52v-20H384Z" fill="#fff"/><path id="1be79e7d-3514-4099-9b1c-859b9d372f8e" data-name="N" d="M401.46,149.25h-2.53l-8-15.44v15.44h-2.53v-20h2.53L399,144.72V129.21h2.51Z" fill="#fff"/><path id="ff26759d-c61a-487a-a38d-6f19b031bd9a" data-name="E" d="M415.43,140h-7.09v7.1h8.26v2.16H405.83v-20h10.64v2.17h-8.12v6.44h7.09Z" fill="#fff"/><path id="928c939a-4e9e-4f89-b0c6-b3e072d4578c" data-name="S" d="M428.58,144.18a4.39,4.39,0,0,0-.16-1.24,2.4,2.4,0,0,0-.58-1,4.59,4.59,0,0,0-1.16-.84,14,14,0,0,0-1.89-.81,14.92,14.92,0,0,1-2.24-1,7.34,7.34,0,0,1-1.71-1.25,5.07,5.07,0,0,1-1.09-1.62,5.28,5.28,0,0,1-.39-2.08,5.7,5.7,0,0,1,.41-2.17,5.09,5.09,0,0,1,1.16-1.73,5.27,5.27,0,0,1,1.82-1.15,6.53,6.53,0,0,1,2.37-.41,6.18,6.18,0,0,1,2.58.51,5.69,5.69,0,0,1,1.89,1.35,5.6,5.6,0,0,1,1.15,1.94,6.83,6.83,0,0,1,.39,2.27h-2.53a5.77,5.77,0,0,0-.2-1.56,3.36,3.36,0,0,0-.63-1.24,2.86,2.86,0,0,0-1.08-.81,4.35,4.35,0,0,0-3,0,2.62,2.62,0,0,0-1.58,1.71,4.3,4.3,0,0,0-.19,1.29,2.79,2.79,0,0,0,.91,2.12,8.06,8.06,0,0,0,2.81,1.53,14.41,14.41,0,0,1,2.51,1.07,6.61,6.61,0,0,1,1.71,1.33,4.72,4.72,0,0,1,1,1.67,6.56,6.56,0,0,1,.31,2.09,5.71,5.71,0,0,1-.41,2.22,4.75,4.75,0,0,1-1.18,1.69,5.24,5.24,0,0,1-1.85,1.08,7.42,7.42,0,0,1-2.45.38,7.29,7.29,0,0,1-2.33-.39,6.18,6.18,0,0,1-2.05-1.15,5.79,5.79,0,0,1-1.46-1.91,6,6,0,0,1-.56-2.64h2.53a4.64,4.64,0,0,0,.3,1.77,3.25,3.25,0,0,0,2.06,1.93,4.85,4.85,0,0,0,1.5.23,3.37,3.37,0,0,0,2.51-.85A3.17,3.17,0,0,0,428.58,144.18Z" fill="#fff"/><path id="b58efb25-7f5d-4c1c-8f9a-0779b908c6f6" data-name="S" d="M443.18,144.18a4.39,4.39,0,0,0-.16-1.24,2.4,2.4,0,0,0-.58-1,4.59,4.59,0,0,0-1.16-.84,14,14,0,0,0-1.89-.81,14.92,14.92,0,0,1-2.24-1,7.34,7.34,0,0,1-1.71-1.25,5.07,5.07,0,0,1-1.09-1.62,5.28,5.28,0,0,1-.39-2.08,5.7,5.7,0,0,1,.41-2.17,5.09,5.09,0,0,1,1.16-1.73,5.27,5.27,0,0,1,1.82-1.15,6.53,6.53,0,0,1,2.37-.41,6.18,6.18,0,0,1,2.58.51,5.69,5.69,0,0,1,1.89,1.35,5.6,5.6,0,0,1,1.15,1.94,6.83,6.83,0,0,1,.39,2.27h-2.53a5.77,5.77,0,0,0-.2-1.56,3.36,3.36,0,0,0-.63-1.24,2.86,2.86,0,0,0-1.08-.81,4.35,4.35,0,0,0-3,0,2.62,2.62,0,0,0-1.58,1.71,4.3,4.3,0,0,0-.19,1.29,2.79,2.79,0,0,0,.91,2.12,8.06,8.06,0,0,0,2.81,1.53,14.41,14.41,0,0,1,2.51,1.07,6.61,6.61,0,0,1,1.71,1.33,4.72,4.72,0,0,1,1,1.67,6.56,6.56,0,0,1,.31,2.09,5.71,5.71,0,0,1-.41,2.22,4.75,4.75,0,0,1-1.18,1.69,5.24,5.24,0,0,1-1.85,1.08,7.42,7.42,0,0,1-2.45.38,7.29,7.29,0,0,1-2.33-.39,6.18,6.18,0,0,1-2.05-1.15,5.79,5.79,0,0,1-1.46-1.91,6,6,0,0,1-.56-2.64H436a4.64,4.64,0,0,0,.3,1.77,3.25,3.25,0,0,0,2.06,1.93,4.85,4.85,0,0,0,1.5.23,3.37,3.37,0,0,0,2.51-.85A3.17,3.17,0,0,0,443.18,144.18Z" fill="#fff"/></g></g></g></svg>